<mxfile host="app.diagrams.net" modified="2022-03-24T03:55:18.877Z" agent="5.0 (Windows NT 10.0; Win64; x64) AppleWebKit/537.36 (KHTML, like Gecko) Chrome/99.0.4844.51 Safari/537.36" etag="d61yAoV42h3oHoTmduLK" version="17.1.5" type="github">
  <diagram id="HNR7NIAoNdu5S8Hdk2nZ" name="Page-1">
    <mxGraphModel dx="702" dy="761" grid="1" gridSize="10" guides="1" tooltips="1" connect="1" arrows="1" fold="1" page="1" pageScale="1" pageWidth="850" pageHeight="1100" math="0" shadow="0">
      <root>
        <mxCell id="0" />
        <mxCell id="1" parent="0" />
        <mxCell id="OddFfojT5YPvvT-0rvrX-15" style="edgeStyle=orthogonalEdgeStyle;rounded=0;orthogonalLoop=1;jettySize=auto;html=1;fontFamily=Comic Sans MS;fontSize=18;fontColor=#000000;" edge="1" parent="1" source="OddFfojT5YPvvT-0rvrX-1" target="OddFfojT5YPvvT-0rvrX-11">
          <mxGeometry relative="1" as="geometry" />
        </mxCell>
        <mxCell id="OddFfojT5YPvvT-0rvrX-16" style="edgeStyle=orthogonalEdgeStyle;rounded=0;orthogonalLoop=1;jettySize=auto;html=1;fontFamily=Comic Sans MS;fontSize=18;fontColor=#000000;" edge="1" parent="1" source="OddFfojT5YPvvT-0rvrX-1" target="OddFfojT5YPvvT-0rvrX-10">
          <mxGeometry relative="1" as="geometry" />
        </mxCell>
        <mxCell id="OddFfojT5YPvvT-0rvrX-17" style="edgeStyle=orthogonalEdgeStyle;rounded=0;orthogonalLoop=1;jettySize=auto;html=1;fontFamily=Comic Sans MS;fontSize=18;fontColor=#000000;" edge="1" parent="1" source="OddFfojT5YPvvT-0rvrX-1" target="OddFfojT5YPvvT-0rvrX-9">
          <mxGeometry relative="1" as="geometry" />
        </mxCell>
        <mxCell id="OddFfojT5YPvvT-0rvrX-1" value="业务产品发起业务需求不知道需不需要数据中台数据" style="rounded=1;whiteSpace=wrap;html=1;" vertex="1" parent="1">
          <mxGeometry x="220" y="120" width="150" height="80" as="geometry" />
        </mxCell>
        <mxCell id="OddFfojT5YPvvT-0rvrX-29" value="" style="edgeStyle=orthogonalEdgeStyle;rounded=0;orthogonalLoop=1;jettySize=auto;html=1;fontFamily=Comic Sans MS;fontSize=18;fontColor=#000000;" edge="1" parent="1" source="OddFfojT5YPvvT-0rvrX-2" target="OddFfojT5YPvvT-0rvrX-3">
          <mxGeometry relative="1" as="geometry">
            <Array as="points">
              <mxPoint x="295" y="1230" />
              <mxPoint x="295" y="1230" />
            </Array>
          </mxGeometry>
        </mxCell>
        <mxCell id="OddFfojT5YPvvT-0rvrX-2" value="业务开发上线前群内通知&lt;br&gt;@啊机 / @雷GG&amp;nbsp;&lt;br&gt;做数据check&amp;nbsp;&amp;nbsp;" style="rounded=1;whiteSpace=wrap;html=1;" vertex="1" parent="1">
          <mxGeometry x="220" y="1080" width="150" height="80" as="geometry" />
        </mxCell>
        <mxCell id="OddFfojT5YPvvT-0rvrX-3" value="结束" style="rounded=1;whiteSpace=wrap;html=1;" vertex="1" parent="1">
          <mxGeometry x="70" y="1210" width="340" height="80" as="geometry" />
        </mxCell>
        <mxCell id="OddFfojT5YPvvT-0rvrX-28" value="" style="edgeStyle=orthogonalEdgeStyle;rounded=0;orthogonalLoop=1;jettySize=auto;html=1;fontFamily=Comic Sans MS;fontSize=18;fontColor=#000000;" edge="1" parent="1" source="OddFfojT5YPvvT-0rvrX-4" target="OddFfojT5YPvvT-0rvrX-2">
          <mxGeometry relative="1" as="geometry" />
        </mxCell>
        <mxCell id="OddFfojT5YPvvT-0rvrX-4" value="业务开发对接，测试&lt;br&gt;使用造数工具进行测试" style="rounded=1;whiteSpace=wrap;html=1;" vertex="1" parent="1">
          <mxGeometry x="220" y="960" width="150" height="80" as="geometry" />
        </mxCell>
        <mxCell id="OddFfojT5YPvvT-0rvrX-27" value="" style="edgeStyle=orthogonalEdgeStyle;rounded=0;orthogonalLoop=1;jettySize=auto;html=1;fontFamily=Comic Sans MS;fontSize=18;fontColor=#000000;" edge="1" parent="1" source="OddFfojT5YPvvT-0rvrX-5" target="OddFfojT5YPvvT-0rvrX-4">
          <mxGeometry relative="1" as="geometry" />
        </mxCell>
        <mxCell id="OddFfojT5YPvvT-0rvrX-5" value="@啊机/@雷GG/@安心&lt;br&gt;补齐数据需求文档&lt;br&gt;提供接口文档给业务方" style="rounded=1;whiteSpace=wrap;html=1;" vertex="1" parent="1">
          <mxGeometry x="220" y="840" width="150" height="80" as="geometry" />
        </mxCell>
        <mxCell id="OddFfojT5YPvvT-0rvrX-24" value="" style="edgeStyle=orthogonalEdgeStyle;rounded=0;orthogonalLoop=1;jettySize=auto;html=1;fontFamily=Comic Sans MS;fontSize=18;fontColor=#000000;" edge="1" parent="1" source="OddFfojT5YPvvT-0rvrX-6" target="OddFfojT5YPvvT-0rvrX-14">
          <mxGeometry relative="1" as="geometry">
            <Array as="points">
              <mxPoint x="525" y="740" />
              <mxPoint x="525" y="740" />
            </Array>
          </mxGeometry>
        </mxCell>
        <mxCell id="OddFfojT5YPvvT-0rvrX-6" value="安心 发起数据需求&lt;br&gt;和各端大佬确认排期" style="rounded=1;whiteSpace=wrap;html=1;" vertex="1" parent="1">
          <mxGeometry x="410" y="640" width="150" height="80" as="geometry" />
        </mxCell>
        <mxCell id="OddFfojT5YPvvT-0rvrX-22" value="" style="edgeStyle=orthogonalEdgeStyle;rounded=0;orthogonalLoop=1;jettySize=auto;html=1;fontFamily=Comic Sans MS;fontSize=18;fontColor=#000000;" edge="1" parent="1" source="OddFfojT5YPvvT-0rvrX-7" target="OddFfojT5YPvvT-0rvrX-13">
          <mxGeometry relative="1" as="geometry" />
        </mxCell>
        <mxCell id="OddFfojT5YPvvT-0rvrX-7" value="业务产品联系 安心 确认使用特征的数据口径&lt;br&gt;已存在的特征 输出 特征ID" style="rounded=1;whiteSpace=wrap;html=1;" vertex="1" parent="1">
          <mxGeometry x="220" y="510" width="150" height="80" as="geometry" />
        </mxCell>
        <mxCell id="OddFfojT5YPvvT-0rvrX-19" style="edgeStyle=orthogonalEdgeStyle;rounded=0;orthogonalLoop=1;jettySize=auto;html=1;entryX=0.5;entryY=0;entryDx=0;entryDy=0;fontFamily=Comic Sans MS;fontSize=18;fontColor=#000000;" edge="1" parent="1" source="OddFfojT5YPvvT-0rvrX-9" target="OddFfojT5YPvvT-0rvrX-12">
          <mxGeometry relative="1" as="geometry">
            <Array as="points">
              <mxPoint x="495" y="370" />
              <mxPoint x="295" y="370" />
            </Array>
          </mxGeometry>
        </mxCell>
        <mxCell id="OddFfojT5YPvvT-0rvrX-9" value="【不推荐】&lt;br&gt;技术评审会上业务开发判断是否需要使用特征数据&lt;br&gt;（此流程后的一般不接）" style="rounded=1;whiteSpace=wrap;html=1;" vertex="1" parent="1">
          <mxGeometry x="420" y="260" width="150" height="80" as="geometry" />
        </mxCell>
        <mxCell id="OddFfojT5YPvvT-0rvrX-20" value="" style="edgeStyle=orthogonalEdgeStyle;rounded=0;orthogonalLoop=1;jettySize=auto;html=1;fontFamily=Comic Sans MS;fontSize=18;fontColor=#000000;" edge="1" parent="1" source="OddFfojT5YPvvT-0rvrX-10" target="OddFfojT5YPvvT-0rvrX-12">
          <mxGeometry relative="1" as="geometry" />
        </mxCell>
        <mxCell id="OddFfojT5YPvvT-0rvrX-10" value="产品需求会上&lt;br&gt;&lt;font style=&quot;font-size: 14px&quot;&gt;业务开发&amp;nbsp;&lt;/font&gt;判断是否需要使用数据中台数据" style="rounded=1;whiteSpace=wrap;html=1;" vertex="1" parent="1">
          <mxGeometry x="220" y="260" width="150" height="80" as="geometry" />
        </mxCell>
        <mxCell id="OddFfojT5YPvvT-0rvrX-18" style="edgeStyle=orthogonalEdgeStyle;rounded=0;orthogonalLoop=1;jettySize=auto;html=1;entryX=0.5;entryY=0;entryDx=0;entryDy=0;fontFamily=Comic Sans MS;fontSize=18;fontColor=#000000;" edge="1" parent="1" source="OddFfojT5YPvvT-0rvrX-11" target="OddFfojT5YPvvT-0rvrX-12">
          <mxGeometry relative="1" as="geometry">
            <Array as="points">
              <mxPoint x="95" y="370" />
              <mxPoint x="295" y="370" />
            </Array>
          </mxGeometry>
        </mxCell>
        <mxCell id="OddFfojT5YPvvT-0rvrX-11" value="业务产品 与 &lt;font face=&quot;Comic Sans MS&quot; style=&quot;font-size: 14px&quot; color=&quot;#ff3333&quot;&gt;安心&lt;/font&gt; 预沟通是否需要使用特征数据" style="rounded=1;whiteSpace=wrap;html=1;" vertex="1" parent="1">
          <mxGeometry x="20" y="260" width="150" height="80" as="geometry" />
        </mxCell>
        <mxCell id="OddFfojT5YPvvT-0rvrX-21" value="" style="edgeStyle=orthogonalEdgeStyle;rounded=0;orthogonalLoop=1;jettySize=auto;html=1;fontFamily=Comic Sans MS;fontSize=18;fontColor=#000000;startArrow=none;" edge="1" parent="1" source="OddFfojT5YPvvT-0rvrX-32" target="OddFfojT5YPvvT-0rvrX-7">
          <mxGeometry relative="1" as="geometry" />
        </mxCell>
        <mxCell id="OddFfojT5YPvvT-0rvrX-30" style="edgeStyle=orthogonalEdgeStyle;rounded=0;orthogonalLoop=1;jettySize=auto;html=1;entryX=0.097;entryY=0.075;entryDx=0;entryDy=0;entryPerimeter=0;fontFamily=Comic Sans MS;fontSize=18;fontColor=#000000;" edge="1" parent="1" source="OddFfojT5YPvvT-0rvrX-12" target="OddFfojT5YPvvT-0rvrX-3">
          <mxGeometry relative="1" as="geometry">
            <Array as="points">
              <mxPoint x="103" y="430" />
            </Array>
          </mxGeometry>
        </mxCell>
        <mxCell id="OddFfojT5YPvvT-0rvrX-31" value="NO" style="edgeLabel;html=1;align=center;verticalAlign=middle;resizable=0;points=[];fontSize=18;fontFamily=Comic Sans MS;fontColor=#000000;" vertex="1" connectable="0" parent="OddFfojT5YPvvT-0rvrX-30">
          <mxGeometry x="-0.7855" y="-2" relative="1" as="geometry">
            <mxPoint as="offset" />
          </mxGeometry>
        </mxCell>
        <mxCell id="OddFfojT5YPvvT-0rvrX-12" value="&lt;font style=&quot;font-size: 18px&quot; color=&quot;#000000&quot;&gt;需要？&lt;/font&gt;" style="rhombus;whiteSpace=wrap;html=1;fontFamily=Comic Sans MS;fontSize=14;fontColor=#FF3333;" vertex="1" parent="1">
          <mxGeometry x="210" y="390" width="170" height="80" as="geometry" />
        </mxCell>
        <mxCell id="OddFfojT5YPvvT-0rvrX-23" value="" style="edgeStyle=orthogonalEdgeStyle;rounded=0;orthogonalLoop=1;jettySize=auto;html=1;fontFamily=Comic Sans MS;fontSize=18;fontColor=#000000;" edge="1" parent="1" source="OddFfojT5YPvvT-0rvrX-13" target="OddFfojT5YPvvT-0rvrX-6">
          <mxGeometry relative="1" as="geometry" />
        </mxCell>
        <mxCell id="OddFfojT5YPvvT-0rvrX-26" style="edgeStyle=orthogonalEdgeStyle;rounded=0;orthogonalLoop=1;jettySize=auto;html=1;exitX=0.5;exitY=1;exitDx=0;exitDy=0;fontFamily=Comic Sans MS;fontSize=18;fontColor=#000000;" edge="1" parent="1" source="OddFfojT5YPvvT-0rvrX-13" target="OddFfojT5YPvvT-0rvrX-5">
          <mxGeometry relative="1" as="geometry" />
        </mxCell>
        <mxCell id="OddFfojT5YPvvT-0rvrX-13" value="&lt;font style=&quot;font-size: 18px&quot; color=&quot;#000000&quot;&gt;需要开发？&lt;/font&gt;" style="rhombus;whiteSpace=wrap;html=1;fontFamily=Comic Sans MS;fontSize=14;fontColor=#FF3333;" vertex="1" parent="1">
          <mxGeometry x="210" y="640" width="170" height="80" as="geometry" />
        </mxCell>
        <mxCell id="OddFfojT5YPvvT-0rvrX-25" style="edgeStyle=orthogonalEdgeStyle;rounded=0;orthogonalLoop=1;jettySize=auto;html=1;entryX=1;entryY=0.5;entryDx=0;entryDy=0;fontFamily=Comic Sans MS;fontSize=18;fontColor=#000000;" edge="1" parent="1" source="OddFfojT5YPvvT-0rvrX-14" target="OddFfojT5YPvvT-0rvrX-5">
          <mxGeometry relative="1" as="geometry">
            <Array as="points">
              <mxPoint x="530" y="880" />
            </Array>
          </mxGeometry>
        </mxCell>
        <mxCell id="OddFfojT5YPvvT-0rvrX-14" value="@Jayqiyoung/@啊机/@雷GG &lt;br&gt;确认跟进需求，&lt;br&gt;输出特征ID和TagID，&lt;br&gt;由@安心输出给业务方" style="rounded=1;whiteSpace=wrap;html=1;" vertex="1" parent="1">
          <mxGeometry x="410" y="760" width="230" height="80" as="geometry" />
        </mxCell>
        <mxCell id="OddFfojT5YPvvT-0rvrX-32" value="YES" style="text;html=1;align=center;verticalAlign=middle;resizable=0;points=[];autosize=1;strokeColor=none;fillColor=none;fontSize=18;fontFamily=Comic Sans MS;fontColor=#000000;" vertex="1" parent="1">
          <mxGeometry x="270" y="470" width="50" height="30" as="geometry" />
        </mxCell>
        <mxCell id="OddFfojT5YPvvT-0rvrX-33" value="" style="edgeStyle=orthogonalEdgeStyle;rounded=0;orthogonalLoop=1;jettySize=auto;html=1;fontFamily=Comic Sans MS;fontSize=18;fontColor=#000000;endArrow=none;" edge="1" parent="1" source="OddFfojT5YPvvT-0rvrX-12" target="OddFfojT5YPvvT-0rvrX-32">
          <mxGeometry relative="1" as="geometry">
            <mxPoint x="295" y="470" as="sourcePoint" />
            <mxPoint x="295" y="510" as="targetPoint" />
          </mxGeometry>
        </mxCell>
      </root>
    </mxGraphModel>
  </diagram>
</mxfile>
